<?xml version="1.0" standalone="no"?>
<!DOCTYPE svg PUBLIC "-//W3C//DTD SVG 20010904//EN"
 "http://www.w3.org/TR/2001/REC-SVG-20010904/DTD/svg10.dtd">
<svg version="1.0" xmlns="http://www.w3.org/2000/svg"
 width="318.000000pt" height="159.000000pt" viewBox="0 0 318.000000 159.000000"
 preserveAspectRatio="xMidYMid meet">

<g transform="translate(0.000000,159.000000) scale(0.100000,-0.100000)"
fill="#000000" stroke="none">
<path d="M708 1143 c-18 -3 -25 -9 -21 -19 4 -11 -5 -14 -38 -14 -64 0 -151
-58 -185 -121 -13 -26 -13 -27 71 -80 47 -30 85 -58 85 -64 0 -5 18 27 41 73
31 63 49 88 80 109 l40 27 24 -30 c14 -16 27 -37 30 -46 13 -37 137 -16 178
29 18 20 17 22 -24 57 -68 58 -195 94 -281 79z"/>
<path d="M1224 795 c0 -165 2 -234 3 -153 2 81 2 216 0 300 -1 84 -3 18 -3
-147z"/>
<path d="M968 925 c-59 -12 -110 -20 -113 -17 -3 3 -5 1 -5 -5 0 -6 17 -32 39
-59 52 -67 72 -108 74 -157 l2 -42 -55 -5 c-53 -5 -56 -6 -77 -50 -27 -52 -31
-128 -8 -137 23 -8 97 23 148 62 64 49 144 185 109 185 -6 0 -2 20 10 46 21
50 19 121 -5 175 l-12 26 -107 -22z"/>
<path d="M1341 888 c1 -29 4 -43 6 -30 3 15 11 22 28 22 15 0 26 7 30 20 9 28
-2 40 -36 40 -29 0 -29 -1 -28 -52z m54 22 c0 -8 -10 -16 -22 -18 -18 -3 -23
2 -23 18 0 16 5 21 23 18 12 -2 22 -10 22 -18z"/>
<path d="M1448 915 c-17 -39 3 -75 42 -75 23 0 33 6 40 25 15 40 -3 75 -40 75
-23 0 -33 -6 -42 -25z m67 -25 c0 -28 -4 -36 -22 -38 -29 -4 -48 30 -33 59 7
13 19 19 33 17 18 -2 22 -10 22 -38z"/>
<path d="M1578 915 c-18 -40 3 -75 44 -74 l33 1 -30 7 c-26 5 -30 10 -30 41 0
31 4 36 30 41 l30 7 -33 1 c-26 1 -35 -4 -44 -24z"/>
<path d="M1704 932 c37 -9 45 -29 14 -35 l-23 -4 23 -2 c34 -2 24 -34 -13 -42
-29 -6 -29 -7 -4 -8 35 -1 51 20 47 61 -3 30 -6 33 -38 35 -33 1 -33 1 -6 -5z"/>
<path d="M1803 890 c0 -30 2 -43 4 -27 3 21 10 27 28 27 18 0 25 -6 28 -27 2
-16 4 -3 4 27 0 30 -2 45 -4 33 -3 -16 -11 -23 -28 -23 -17 0 -25 7 -28 23 -2
12 -4 -3 -4 -33z"/>
<path d="M1920 890 l0 -50 33 1 c30 2 30 2 5 6 -35 5 -39 40 -5 46 l22 4 -22
2 c-33 2 -29 29 5 34 25 4 25 4 -5 6 l-33 1 0 -50z"/>
<path d="M2021 888 c1 -29 4 -43 6 -30 3 15 11 22 28 22 15 0 26 7 30 20 9 28
-2 40 -36 40 -29 0 -29 -1 -28 -52z m54 22 c0 -8 -10 -16 -22 -18 -18 -3 -23
2 -23 18 0 16 5 21 23 18 12 -2 22 -10 22 -18z"/>
<path d="M2132 888 l2 -53 3 47 c3 39 8 47 26 51 18 4 17 5 -5 6 -27 1 -28 0
-26 -51z"/>
<path d="M2222 928 c-7 -7 -12 -24 -12 -38 0 -31 17 -50 45 -50 28 0 45 19 45
50 0 31 -17 50 -45 50 -12 0 -26 -5 -33 -12z m63 -18 c11 -36 -4 -62 -33 -58
-28 3 -40 32 -28 64 8 22 54 18 61 -6z"/>
<path d="M2366 931 c-4 -5 -13 -29 -21 -53 -12 -34 -12 -39 -1 -25 7 9 21 17
31 17 10 0 24 -8 32 -17 9 -13 9 -5 -3 27 -20 53 -29 66 -38 51z m24 -43 c0
-5 -7 -8 -15 -8 -15 0 -20 21 -8 33 7 7 23 -11 23 -25z"/>
<path d="M2452 933 c12 -3 18 -18 21 -51 l3 -47 2 47 c2 35 6 48 20 51 9 3 -1
5 -23 5 -22 0 -32 -2 -23 -5z"/>
<path d="M2552 928 c-7 -7 -12 -24 -12 -38 0 -31 17 -50 45 -50 28 0 45 19 45
50 0 31 -17 50 -45 50 -12 0 -26 -5 -33 -12z m63 -38 c0 -32 -2 -35 -30 -35
-24 0 -31 5 -33 23 -6 38 5 54 35 50 25 -3 28 -7 28 -38z"/>
<path d="M2675 906 c-4 -19 -5 -42 -2 -53 3 -10 5 -1 6 20 1 43 16 42 26 -3 9
-40 19 -38 38 8 l15 37 1 -37 c1 -21 4 -38 9 -38 4 0 5 22 4 50 -5 60 -17 64
-33 10 -13 -44 -24 -44 -34 0 -9 43 -23 46 -30 6z"/>
<path d="M415 883 c-3 -21 -8 -46 -10 -56 -16 -78 66 -276 109 -262 6 3 20
-10 31 -28 27 -44 114 -86 185 -89 l55 -3 -1 70 c0 39 -4 87 -8 108 l-7 38
-74 -7 c-59 -5 -85 -3 -120 10 -51 20 -54 30 -25 86 15 28 17 45 11 62 -9 25
-84 98 -100 98 -5 0 -16 3 -25 6 -11 4 -16 -4 -21 -33z"/>
<path d="M733 860 c-26 -11 -43 -40 -43 -74 0 -27 41 -66 70 -66 10 0 29 9 44
21 63 49 4 149 -71 119z"/>
<path d="M1342 678 l1 -43 4 38 c4 33 7 38 24 34 10 -3 17 -1 13 4 -3 5 -14 9
-25 9 -16 0 -19 -7 -17 -42z"/>
<path d="M1432 708 c-6 -6 -12 -21 -11 -32 1 -18 2 -17 8 4 8 28 39 39 53 18
8 -10 9 -10 5 2 -5 19 -39 24 -55 8z"/>
<path d="M1537 713 c-4 -3 -7 -11 -7 -17 0 -7 3 -7 8 0 4 7 16 14 27 17 19 5
19 5 -1 6 -11 0 -24 -2 -27 -6z"/>
<path d="M1635 709 c-4 -6 -5 -12 -2 -15 2 -3 7 2 10 11 7 17 1 20 -8 4z"/>
<path d="M1703 713 c12 -3 17 -16 19 -41 l1 -37 4 35 c3 19 10 38 16 42 7 4
-4 7 -23 7 -19 -1 -27 -3 -17 -6z"/>
<path d="M1787 713 c-3 -5 8 -8 23 -8 15 0 26 3 23 8 -2 4 -13 7 -23 7 -10 0
-21 -3 -23 -7z"/>
<path d="M1881 678 c1 -40 2 -41 9 -13 4 17 8 24 9 16 0 -8 3 -12 6 -10 7 8
-6 49 -16 49 -5 0 -8 -19 -8 -42z"/>
<path d="M1947 685 c7 -49 13 -58 13 -19 0 16 -5 36 -10 44 -6 10 -7 2 -3 -25z"/>
<path d="M1770 680 c0 -17 17 -47 23 -40 2 3 -2 16 -10 30 -7 14 -13 18 -13
10z"/>
<path d="M1833 664 c-6 -13 -7 -24 -3 -24 9 0 25 39 18 45 -2 2 -8 -7 -15 -21z"/>
<path d="M1620 669 c0 -5 8 -9 18 -9 10 0 24 -6 31 -12 10 -11 11 -10 6 3 -7
18 -55 33 -55 18z"/>
<path d="M1915 650 c-3 -5 -1 -10 4 -10 6 0 11 5 11 10 0 6 -2 10 -4 10 -3 0
-8 -4 -11 -10z"/>
</g>
</svg>
